<svg width="393" height="423" viewBox="0 0 393 423" fill="none" xmlns="http://www.w3.org/2000/svg">
<g clip-path="url(#clip0_1_35)">
<path d="M93.7049 41.786C88.4039 41.786 84.0729 46.117 84.0729 51.418V362.109C84.0729 367.41 88.4039 371.741 93.7049 371.741H298.958C304.259 371.741 308.59 367.41 308.59 362.109V51.547C308.59 46.246 304.259 41.915 298.958 41.915H93.7049V41.786Z" fill="white"/>
<path d="M286.739 63.572H105.794V350.02H286.739V63.572Z" fill="#56ACE0"/>
<path d="M196.299 82.966C157.123 82.966 125.188 114.901 125.188 154.077C125.188 193.253 157.123 225.188 196.299 225.188C235.475 225.188 267.41 193.253 267.41 154.077C267.41 114.901 235.475 82.966 196.299 82.966Z" fill="#FFC10D"/>
<path d="M196.299 61.18C145.099 61.18 103.402 102.812 103.402 154.077C103.402 205.342 145.099 247.039 196.299 247.039C247.499 247.039 289.196 205.407 289.196 154.142C289.196 102.877 247.499 61.18 196.299 61.18ZM196.299 225.253C157.123 225.253 125.188 193.318 125.188 154.142C125.188 114.966 157.123 83.031 196.299 83.031C235.475 83.031 267.41 114.966 267.41 154.142C267.41 193.318 235.475 225.253 196.299 225.253Z" fill="#194F82"/>
<path d="M196.299 134.489C185.503 134.489 176.646 143.281 176.646 154.142C176.646 165.003 185.438 173.795 196.299 173.795C207.16 173.795 215.952 165.003 215.952 154.142C215.952 143.216 207.095 134.489 196.299 134.489Z" fill="white"/>
<path d="M196.299 112.638C173.414 112.638 154.861 131.192 154.861 154.076C154.861 176.961 173.415 195.514 196.299 195.514C219.183 195.514 237.737 176.96 237.737 154.076C237.737 131.257 219.184 112.638 196.299 112.638ZM196.299 173.665C185.503 173.665 176.646 164.873 176.646 154.012C176.646 143.151 185.438 134.359 196.299 134.359C207.16 134.359 215.952 143.151 215.952 154.012C215.952 164.873 207.095 173.665 196.299 173.665Z" fill="#194F82"/>
<path d="M196.299 291.451C185.503 291.451 176.646 300.243 176.646 311.104C176.646 321.965 185.503 330.692 196.299 330.692C207.095 330.692 215.952 321.9 215.952 311.039C215.952 300.242 207.095 291.451 196.299 291.451Z" fill="white"/>
<path d="M196.299 269.665C173.414 269.665 154.861 288.219 154.861 311.103C154.861 333.987 173.415 352.541 196.299 352.541C219.183 352.541 237.737 333.987 237.737 311.103C237.737 288.283 219.184 269.665 196.299 269.665ZM196.299 330.691C185.503 330.691 176.646 321.899 176.646 311.038C176.646 300.177 185.438 291.385 196.299 291.385C207.16 291.385 215.952 300.177 215.952 311.038C215.952 321.899 207.095 330.691 196.299 330.691Z" fill="#194F82"/>
<path d="M298.893 20H93.7049C76.3149 20 62.1579 34.158 62.1579 51.547V362.238C62.1579 378.076 73.9239 391.135 89.1159 393.398V401.673C89.1159 407.685 93.9639 412.598 100.041 412.598C106.053 412.598 110.966 407.75 110.966 401.673V393.721H281.633V401.673C281.633 407.685 286.481 412.598 292.558 412.598C298.57 412.598 303.483 407.75 303.483 401.673V393.398C318.675 391.135 330.441 378.077 330.441 362.238V51.547C330.376 34.158 316.283 20 298.893 20ZM308.59 362.238C308.59 367.539 304.259 371.87 298.958 371.87H93.7049C88.4039 371.87 84.0729 367.539 84.0729 362.238V324.678H105.536C111.548 324.678 116.461 319.83 116.461 313.753C116.461 307.741 111.613 302.828 105.536 302.828H84.0729V281.042H127.321C133.333 281.042 138.246 276.194 138.246 270.117C138.246 264.04 133.398 259.192 127.321 259.192H84.0729V51.547C84.0729 46.246 88.4039 41.915 93.7049 41.915H298.958C304.259 41.915 308.59 46.246 308.59 51.547V362.238Z" fill="#194F82"/>
</g>
<g filter="url(#filter0_d_1_35)">
<rect x="38.5513" y="389.822" width="475.221" height="42.0411" transform="rotate(-54.46 38.5513 389.822)" fill="#FF0000"/>
</g>
<g filter="url(#filter1_d_1_35)">
<rect x="75.9215" y="0.200516" width="475.22" height="42.0411" transform="rotate(54.4648 75.9215 0.200516)" fill="#FF0000"/>
</g>
<defs>
<filter id="filter0_d_1_35" x="34.5513" y="3.12973" width="318.441" height="419.129" filterUnits="userSpaceOnUse" color-interpolation-filters="sRGB">
<feFlood flood-opacity="0" result="BackgroundImageFix"/>
<feColorMatrix in="SourceAlpha" type="matrix" values="0 0 0 0 0 0 0 0 0 0 0 0 0 0 0 0 0 0 127 0" result="hardAlpha"/>
<feOffset dy="4"/>
<feGaussianBlur stdDeviation="2"/>
<feComposite in2="hardAlpha" operator="out"/>
<feColorMatrix type="matrix" values="0 0 0 0 0 0 0 0 0 0 0 0 0 0 0 0 0 0 0.25 0"/>
<feBlend mode="normal" in2="BackgroundImageFix" result="effect1_dropShadow_1_35"/>
<feBlend mode="normal" in="SourceGraphic" in2="effect1_dropShadow_1_35" result="shape"/>
</filter>
<filter id="filter1_d_1_35" x="37.7102" y="0.200516" width="318.411" height="419.149" filterUnits="userSpaceOnUse" color-interpolation-filters="sRGB">
<feFlood flood-opacity="0" result="BackgroundImageFix"/>
<feColorMatrix in="SourceAlpha" type="matrix" values="0 0 0 0 0 0 0 0 0 0 0 0 0 0 0 0 0 0 127 0" result="hardAlpha"/>
<feOffset dy="4"/>
<feGaussianBlur stdDeviation="2"/>
<feComposite in2="hardAlpha" operator="out"/>
<feColorMatrix type="matrix" values="0 0 0 0 0 0 0 0 0 0 0 0 0 0 0 0 0 0 0.25 0"/>
<feBlend mode="normal" in2="BackgroundImageFix" result="effect1_dropShadow_1_35"/>
<feBlend mode="normal" in="SourceGraphic" in2="effect1_dropShadow_1_35" result="shape"/>
</filter>
<clipPath id="clip0_1_35">
<rect width="392.598" height="392.598" fill="white" transform="translate(-6.10352e-05 20)"/>
</clipPath>
</defs>
</svg>
